<?xml version="1.0" encoding="UTF-8"?>
<svg width="20px" height="20px" viewBox="0 0 20 20" version="1.1" xmlns="http://www.w3.org/2000/svg" xmlns:xlink="http://www.w3.org/1999/xlink">
    <!-- Generator: sketchtool 48.2 (47327) - http://www.bohemiancoding.com/sketch -->
    <title>737E56A5-3E4B-45CF-97CB-61881E61556C</title>
    <desc>Created with sketchtool.</desc>
    <defs></defs>
    <g id="Search" stroke="none" stroke-width="1" fill="none" fill-rule="evenodd" transform="translate(-220.000000, -171.000000)">
        <path d="M238.725994,188.459554 L234.679156,184.407973 C235.170962,183.788977 235.564401,183.064481 235.859483,182.234466 C236.154568,181.404451 236.302108,180.539278 236.302108,179.638919 C236.302108,178.583817 236.098363,177.592033 235.690865,176.663539 C235.297421,175.735046 234.752932,174.926145 234.057378,174.236809 C233.361823,173.547475 232.550357,172.998829 231.622951,172.590856 C230.695545,172.196947 229.704922,172 228.651055,172 C227.597186,172 226.606563,172.196947 225.679157,172.590856 C224.751751,172.998829 223.940284,173.547475 223.244731,174.236809 C222.549177,174.926145 222.004686,175.735046 221.611241,176.663539 C221.203745,177.592033 221,178.583817 221,179.638919 C221,180.708094 221.203745,181.706912 221.611241,182.635405 C222.004686,183.563896 222.549177,184.372797 223.244731,185.062133 C223.940284,185.75147 224.751751,186.300116 225.679157,186.708089 C226.606563,187.101995 227.597186,187.298945 228.651055,187.298945 C229.550354,187.298945 230.400466,187.151232 231.201405,186.855804 C232.002345,186.560374 232.740043,186.166473 233.414519,185.674092 L237.461357,189.725674 C237.559719,189.824151 237.668617,189.89449 237.788056,189.936694 C237.907494,189.978898 238.009366,190 238.093678,190 C238.177987,190 238.27986,189.978898 238.399298,189.936694 C238.518736,189.89449 238.627634,189.824151 238.725994,189.725674 C238.908666,189.542789 239,189.331771 239,189.092614 C239,188.853457 238.908666,188.642439 238.725994,188.459554 Z M222.812646,179.638919 C222.812646,178.837041 222.960186,178.077377 223.255269,177.359904 C223.564404,176.656503 223.982434,176.037516 224.509367,175.502928 C225.036303,174.968344 225.658076,174.553343 226.374709,174.257912 C227.077286,173.948414 227.836062,173.793668 228.651055,173.793668 C229.466045,173.793668 230.224822,173.948414 230.927402,174.257912 C231.644032,174.553343 232.265805,174.968344 232.792741,175.502928 C233.319674,176.037516 233.737704,176.656503 234.04684,177.359904 C234.341922,178.077377 234.489461,178.837041 234.489461,179.638919 C234.489461,180.454868 234.341922,181.214534 234.04684,181.917935 C233.751755,182.621338 233.330215,183.247359 232.782203,183.796014 C232.782203,183.796014 232.782203,183.796014 232.782203,183.796014 C232.782203,183.796014 232.782203,183.796014 232.782203,183.796014 C232.782203,183.796014 232.782203,183.796014 232.782203,183.796014 C232.782203,183.796014 232.782203,183.796014 232.782203,183.796014 C232.248241,184.330601 231.629979,184.749119 230.927402,185.051583 C230.224822,185.354044 229.466045,185.505277 228.651055,185.505277 C227.836062,185.505277 227.077286,185.350528 226.374709,185.04103 C225.658076,184.731535 225.036303,184.313014 224.509367,183.785463 C223.982434,183.257909 223.564404,182.635408 223.255269,181.917935 C222.960186,181.214534 222.812646,180.454868 222.812646,179.638919 Z" id="Page-1" stroke="#FFFFFF" stroke-width="0.5" fill="#000000"></path>
    </g>
</svg>