<?xml version="1.0" encoding="UTF-8"?>
<svg width="19px" height="18px" viewBox="0 0 19 18" version="1.1" xmlns="http://www.w3.org/2000/svg" xmlns:xlink="http://www.w3.org/1999/xlink">
    <!-- Generator: sketchtool 48.2 (47327) - http://www.bohemiancoding.com/sketch -->
    <title>43101325-5815-48C9-8747-A54ECBFF2DD3</title>
    <desc>Created with sketchtool.</desc>
    <defs></defs>
    <g id="Search" stroke="none" stroke-width="1" fill="none" fill-rule="evenodd" transform="translate(-627.000000, -171.000000)">
        <path d="M644.8125,174.857143 L641.25,174.857143 L641.25,172.285714 C641.25,171.937499 641.132487,171.636161 640.89746,171.381698 C640.662435,171.127232 640.384115,171 640.0625,171 L632.9375,171 C632.615885,171 632.337565,171.127232 632.10254,171.381698 C631.867513,171.636161 631.75,171.937499 631.75,172.285714 L631.75,174.857143 L628.1875,174.857143 C627.865884,174.857143 627.587566,174.984375 627.352539,175.238841 C627.117512,175.493304 627,175.794642 627,176.142857 L627,187.714286 C627,188.062502 627.117512,188.363838 627.352539,188.618304 C627.587566,188.872769 627.865884,189 628.1875,189 L644.8125,189 C645.134115,189 645.412435,188.872769 645.64746,188.618304 C645.882487,188.363838 646,188.062502 646,187.714286 L646,176.142857 C646,175.794642 645.882487,175.493304 645.64746,175.238841 C645.412435,174.984375 645.134115,174.857143 644.8125,174.857143 Z M632.9375,172.285714 L640.0625,172.285714 L640.0625,174.857143 L632.9375,174.857143 L632.9375,172.285714 Z" id="Page-1" fill="#0F0F0F"></path>
    </g>
</svg>