<?xml version="1.0" encoding="iso-8859-1"?>
<!-- Generator: Adobe Illustrator 16.0.0, SVG Export Plug-In . SVG Version: 6.00 Build 0)  -->
<!DOCTYPE svg PUBLIC "-//W3C//DTD SVG 1.1//EN" "http://www.w3.org/Graphics/SVG/1.1/DTD/svg11.dtd">
<svg version="1.1" id="Capa_1" xmlns="http://www.w3.org/2000/svg" xmlns:xlink="http://www.w3.org/1999/xlink" x="0px" y="0px"
	 width="485.213px" height="485.212px" viewBox="0 0 485.213 485.212" style="enable-background:new 0 0 485.213 485.212;"
	 xml:space="preserve">
<g>
	<path d="M394.234,30.327h30.327V0H60.651v30.327h30.327v30.324h14.454c-22.036,59.853-3.083,127.614,47.884,166.764
		c7.911,6.069,16.407,10.928,25.114,15.191c-8.707,4.269-17.203,9.122-25.114,15.198c-50.967,39.115-69.92,106.909-47.884,166.755
		H90.978v30.327H60.651v30.326h363.911v-30.326h-30.327v-30.327h-14.453c22.033-59.846,3.08-127.64-47.856-166.755
		c-7.873-6.076-16.409-10.93-25.113-15.198c8.704-4.263,17.24-9.122,25.113-15.191c50.937-39.122,69.89-106.878,47.856-166.764
		h14.453V30.327z M349.935,66.485c20.194,48.54,5.204,104.839-36.487,136.881c-12.32,9.448-26.126,15.786-40.52,19.667v39.154
		c14.394,3.874,28.199,10.184,40.52,19.662c41.691,32.04,56.682,88.344,36.487,136.876l-2.436,5.834h-30.854
		c5.148-25.44-2.665-52.715-22.98-71.252c-10.487-9.475-22.925-15.43-35.895-18.062V211.008
		c17.945-2.665,35.362-9.922,50.227-22.122c12.615-10.307,21.856-23.219,28.255-37.257H149.022
		c6.368,14.039,15.637,26.95,28.194,37.257c14.869,12.2,32.282,19.457,50.227,22.122v124.238
		c-12.972,2.632-25.41,8.587-35.834,18.062c-20.374,18.542-28.166,45.812-22.98,71.252h-30.892l-2.427-5.834
		c-20.229-48.532-5.241-104.836,36.485-136.876c12.291-9.479,26.152-15.788,40.484-19.694v-39.122
		c-14.333-3.881-28.163-10.219-40.484-19.663c-41.726-32.044-56.714-88.343-36.485-136.881l2.429-5.838h209.76L349.935,66.485z"/>
</g>
<g>
</g>
<g>
</g>
<g>
</g>
<g>
</g>
<g>
</g>
<g>
</g>
<g>
</g>
<g>
</g>
<g>
</g>
<g>
</g>
<g>
</g>
<g>
</g>
<g>
</g>
<g>
</g>
<g>
</g>
</svg>
