<?xml version="1.0" encoding="UTF-8"?>
<svg width="14px" height="14px" viewBox="0 0 14 14" version="1.1" xmlns="http://www.w3.org/2000/svg" xmlns:xlink="http://www.w3.org/1999/xlink">
    <!-- Generator: sketchtool 48.2 (47327) - http://www.bohemiancoding.com/sketch -->
    <title>6B844F6B-B9A7-4440-8ECA-9C575DC83BAF</title>
    <desc>Created with sketchtool.</desc>
    <defs></defs>
    <g id="Home" stroke="none" stroke-width="1" fill="none" fill-rule="evenodd" transform="translate(-650.000000, -1686.000000)" opacity="1">
        <path d="M657,1686 C657.947921,1686 658.854162,1686.18489 659.718749,1686.55469 C660.583338,1686.92448 661.328121,1687.42187 661.953125,1688.04688 C662.578129,1688.67188 663.075519,1689.41666 663.445313,1690.28125 C663.815105,1691.14584 664,1692.05208 664,1693 C664,1693.94271 663.816407,1694.84635 663.449219,1695.71094 C663.082029,1696.57552 662.58594,1697.32031 661.960937,1697.94531 C661.335935,1698.57032 660.591151,1699.06901 659.726563,1699.44141 C658.861975,1699.8138 657.953131,1700 657,1700 C656.046869,1700 655.138025,1699.81511 654.273437,1699.44531 C653.408849,1699.07552 652.665367,1698.57683 652.042969,1697.94922 C651.42057,1697.32161 650.924481,1696.57683 650.554688,1695.71484 C650.184894,1694.85286 650,1693.94792 650,1693 C650,1692.05208 650.184894,1691.14584 650.554688,1690.28125 C650.924481,1689.41666 651.421872,1688.67188 652.046875,1688.04688 C652.671877,1687.42187 653.416662,1686.92448 654.281251,1686.55469 C655.145838,1686.18489 656.052079,1686 657,1686 Z M661.835938,1696.55469 C662.611982,1695.48697 662.999999,1694.30209 662.999999,1693 C662.999999,1692.1875 662.841148,1691.41146 662.523438,1690.67188 C662.205727,1689.93229 661.778648,1689.29427 661.242187,1688.75781 C660.705726,1688.22135 660.067711,1687.79427 659.328125,1687.47656 C658.588538,1687.15885 657.812504,1687 657,1687 C656.187496,1687 655.411462,1687.15885 654.671875,1687.47656 C653.932289,1687.79427 653.294274,1688.22135 652.757813,1688.75781 C652.221352,1689.29427 651.794273,1689.93229 651.476562,1690.67188 C651.158853,1691.41146 651,1692.1875 651,1693 C651,1694.30209 651.388017,1695.48697 652.164062,1696.55469 C652.507815,1694.85155 653.304681,1694 654.554688,1694 C655.236982,1694.66667 656.052079,1695 657,1695 C657.947921,1695 658.763018,1694.66667 659.445312,1694 C660.695319,1694 661.492185,1694.85155 661.835938,1696.55469 Z M660.000001,1691.5 C660.000001,1692.32813 659.707035,1693.03515 659.121095,1693.62109 C658.535152,1694.20703 657.82813,1694.5 657,1694.5 C656.17187,1694.5 655.464848,1694.20703 654.878905,1693.62109 C654.292965,1693.03515 653.999999,1692.32813 653.999999,1691.5 C653.999999,1690.67187 654.292965,1689.96485 654.878905,1689.37891 C655.464848,1688.79297 656.17187,1688.5 657,1688.5 C657.82813,1688.5 658.535152,1688.79297 659.121095,1689.37891 C659.707035,1689.96485 660.000001,1690.67187 660.000001,1691.5 Z" id="Page-1" fill="#000000"></path>
    </g>
</svg>