<?xml version="1.0" encoding="UTF-8"?>
<svg width="11px" height="18px" viewBox="0 0 11 18" version="1.1" xmlns="http://www.w3.org/2000/svg" xmlns:xlink="http://www.w3.org/1999/xlink">
    <!-- Generator: sketchtool 48.2 (47327) - http://www.bohemiancoding.com/sketch -->
    <title>606ADED3-8467-4819-B8CE-42940C1B52E9</title>
    <desc>Created with sketchtool.</desc>
    <defs></defs>
    <g id="Search" stroke="none" stroke-width="1" fill="none" fill-rule="evenodd" transform="translate(-847.000000, -171.000000)">
        <path d="M852.5,171 C851.740882,171 851.028324,171.146519 850.362304,171.43956 C849.696286,171.732604 849.112633,172.131866 848.611328,172.637365 C848.110023,173.14286 847.716147,173.739926 847.429688,174.428571 C847.143228,175.11722 847,175.849813 847,176.626373 C847,177.959714 847.286455,179.355305 847.859375,180.813188 C848.432295,182.271071 849.062496,183.60439 849.75,184.813188 C850.437503,186.021983 851.067706,187.021974 851.640625,187.813187 C852.213544,188.6044 852.5,189 852.5,189 C852.5,189 852.786456,188.6044 853.359375,187.813187 C853.932294,187.021974 854.562497,186.021983 855.25,184.813188 C855.937503,183.60439 856.567706,182.271071 857.140625,180.813188 C857.713544,179.355305 858,177.959714 858,176.626373 C858,175.849813 857.856772,175.11722 857.570312,174.428571 C857.283853,173.739926 856.889976,173.14286 856.38867,172.637365 C855.887367,172.131866 855.303713,171.732604 854.637696,171.43956 C853.971676,171.146519 853.259118,171 852.5,171 Z M852.5,179.725275 C851.683591,179.725275 850.985355,179.428574 850.405273,178.835166 C849.825193,178.241756 849.535156,177.527476 849.535156,176.692309 C849.535156,175.842487 849.825193,175.120882 850.405273,174.527474 C850.985355,173.934064 851.683591,173.637362 852.5,173.637362 C853.316409,173.637362 854.014645,173.934064 854.594727,174.527474 C855.174807,175.120882 855.464844,175.842487 855.464844,176.692309 C855.464844,177.527476 855.174807,178.241756 854.594727,178.835166 C854.014645,179.428574 853.316409,179.725275 852.5,179.725275 Z" id="Page-1" fill="#000000"></path>
    </g>
</svg>